<svg xmlns="http://www.w3.org/2000/svg" xmlns:xlink="http://www.w3.org/1999/xlink" contentStyleType="text/css" height="684px" preserveAspectRatio="none" style="width:858px;height:684px;background:#FFFFFF;" version="1.1" viewBox="0 0 858 684" width="858px" zoomAndPan="magnify"><defs/><g><!--cluster 3cf3b6542196c7d0413d200bf2c649c6--><g id="cluster_3cf3b6542196c7d0413d200bf2c649c6"><polygon fill="none" points="16,48.59,26,38.59,262,38.59,262,566.67,252,576.67,16,576.67,16,48.59" style="stroke:#181818;stroke-width:1.0;"/><line style="stroke:#181818;stroke-width:1.0;" x1="252" x2="262" y1="48.59" y2="38.59"/><line style="stroke:#181818;stroke-width:1.0;" x1="16" x2="252" y1="48.59" y2="48.59"/><line style="stroke:#181818;stroke-width:1.0;" x1="252" x2="252" y1="48.59" y2="576.67"/><text fill="#000000" font-family="sans-serif" font-size="14" font-weight="bold" lengthAdjust="spacing" textLength="83" x="93.5" y="64.5851">Djangoapp</text></g><!--cluster 22a2a5ad02cf0a8fcde613f14ab43b8d--><g id="cluster_22a2a5ad02cf0a8fcde613f14ab43b8d"><polygon fill="none" points="348,16,358,6,790,6,790,566.67,780,576.67,348,576.67,348,16" style="stroke:#181818;stroke-width:1.0;"/><line style="stroke:#181818;stroke-width:1.0;" x1="780" x2="790" y1="16" y2="6"/><line style="stroke:#181818;stroke-width:1.0;" x1="348" x2="780" y1="16" y2="16"/><line style="stroke:#181818;stroke-width:1.0;" x1="780" x2="780" y1="16" y2="576.67"/><text fill="#000000" font-family="sans-serif" font-size="14" font-weight="bold" lengthAdjust="spacing" textLength="98" x="516" y="31.9951">Postgres_db</text></g><!--entity 58eaf29809a995bef66d3c6c262162fd--><g id="elem_58eaf29809a995bef66d3c6c262162fd"><rect fill="#F1F1F1" height="95.1875" rx="2.5" ry="2.5" style="stroke:#181818;stroke-width:0.5;" width="214" x="32" y="78.59"/><rect fill="#F1F1F1" height="10" style="stroke:#181818;stroke-width:0.5;" width="15" x="226" y="83.59"/><rect fill="#F1F1F1" height="2" style="stroke:#181818;stroke-width:0.5;" width="4" x="224" y="85.59"/><rect fill="#F1F1F1" height="2" style="stroke:#181818;stroke-width:0.5;" width="4" x="224" y="89.59"/><text fill="#000000" font-family="sans-serif" font-size="14" font-weight="bold" lengthAdjust="spacing" textLength="174" x="47" y="111.5851">proggresso_container</text><text fill="#000000" font-family="sans-serif" font-size="14" lengthAdjust="spacing" textLength="4" x="47" y="127.882">&#160;</text><text fill="#000000" font-family="sans-serif" font-size="14" lengthAdjust="spacing" textLength="99" x="47" y="144.1789">restart: always</text><text fill="#000000" font-family="sans-serif" font-size="14" lengthAdjust="spacing" textLength="4" x="47" y="160.4757">&#160;</text></g><!--entity 0329d31a55de332fdf297c2a6295cb01--><g id="elem_0329d31a55de332fdf297c2a6295cb01"><ellipse cx="210" cy="296.38" fill="#F1F1F1" rx="8" ry="8" style="stroke:#181818;stroke-width:0.5;"/><text fill="#000000" font-family="sans-serif" font-size="14" lengthAdjust="spacing" textLength="36" x="192" y="326.3751">8000</text></g><!--entity faa1aa04e9912562f46c1abe3c3aada0--><g id="elem_faa1aa04e9912562f46c1abe3c3aada0"><rect fill="#F1F1F1" height="39.2969" rx="2.5" ry="2.5" style="stroke:#181818;stroke-width:0.5;" width="106" x="86" y="521.38"/><polygon fill="#F1F1F1" points="175,526.38,175,540.38,187,540.38,187,532.38,181,526.38,175,526.38" style="stroke:#181818;stroke-width:0.5;"/><line style="stroke:#181818;stroke-width:0.5;" x1="181" x2="181" y1="526.38" y2="532.38"/><line style="stroke:#181818;stroke-width:0.5;" x1="187" x2="181" y1="532.38" y2="532.38"/><text fill="#000000" font-family="sans-serif" font-size="14" lengthAdjust="spacing" textLength="76" x="96" y="547.3751">/Progresso</text></g><!--entity eab5be6548bed1a95284f2a24e186049--><g id="elem_eab5be6548bed1a95284f2a24e186049"><rect fill="#F1F1F1" height="160.375" rx="2.5" ry="2.5" style="stroke:#181818;stroke-width:0.5;" width="411" x="363.5" y="46"/><rect fill="#F1F1F1" height="10" style="stroke:#181818;stroke-width:0.5;" width="15" x="754.5" y="51"/><rect fill="#F1F1F1" height="2" style="stroke:#181818;stroke-width:0.5;" width="4" x="752.5" y="53"/><rect fill="#F1F1F1" height="2" style="stroke:#181818;stroke-width:0.5;" width="4" x="752.5" y="57"/><text fill="#000000" font-family="sans-serif" font-size="14" font-weight="bold" lengthAdjust="spacing" textLength="53" x="378.5" y="78.9951">psqldb</text><text fill="#000000" font-family="sans-serif" font-size="14" lengthAdjust="spacing" textLength="4" x="378.5" y="95.292">&#160;</text><text fill="#000000" font-family="sans-serif" font-size="14" lengthAdjust="spacing" textLength="156" x="378.5" y="111.5889">image: postgres:latest</text><text fill="#000000" font-family="sans-serif" font-size="14" lengthAdjust="spacing" textLength="305" x="378.5" y="127.8857">environment: POSTGRES_DB=progressoDB</text><text fill="#000000" font-family="sans-serif" font-size="14" lengthAdjust="spacing" textLength="301" x="378.5" y="144.1826">environment: POSTGRES_USER=progresso</text><text fill="#000000" font-family="sans-serif" font-size="14" lengthAdjust="spacing" textLength="371" x="378.5" y="160.4795">environment: POSTGRES_PASSWORD=progresso123</text><text fill="#000000" font-family="sans-serif" font-size="14" lengthAdjust="spacing" textLength="99" x="378.5" y="176.7764">restart: always</text><text fill="#000000" font-family="sans-serif" font-size="14" lengthAdjust="spacing" textLength="4" x="378.5" y="193.0732">&#160;</text></g><!--entity d70a923daf07f1cec13e59bc124c841a--><g id="elem_d70a923daf07f1cec13e59bc124c841a"><ellipse cx="689" cy="296.38" fill="#F1F1F1" rx="8" ry="8" style="stroke:#181818;stroke-width:0.5;"/><text fill="#000000" font-family="sans-serif" font-size="14" lengthAdjust="spacing" textLength="36" x="671" y="326.3751">5432</text></g><!--entity e960ddc7b82a83f3eae82418c3ec9f71--><g id="elem_e960ddc7b82a83f3eae82418c3ec9f71"><rect fill="#F1F1F1" height="39.2969" rx="2.5" ry="2.5" style="stroke:#181818;stroke-width:0.5;" width="189" x="474.5" y="521.38"/><polygon fill="#F1F1F1" points="646.5,526.38,646.5,540.38,658.5,540.38,658.5,532.38,652.5,526.38,646.5,526.38" style="stroke:#181818;stroke-width:0.5;"/><line style="stroke:#181818;stroke-width:0.5;" x1="652.5" x2="652.5" y1="526.38" y2="532.38"/><line style="stroke:#181818;stroke-width:0.5;" x1="658.5" x2="652.5" y1="532.38" y2="532.38"/><text fill="#000000" font-family="sans-serif" font-size="14" lengthAdjust="spacing" textLength="159" x="484.5" y="547.3751">/var/lib/postgresql/data</text></g><!--entity 1624c420083928ef3e240dd88f2e52f0--><g id="elem_1624c420083928ef3e240dd88f2e52f0"><ellipse cx="305" cy="431.38" fill="#F1F1F1" rx="8" ry="8" style="stroke:#181818;stroke-width:0.5;"/><text fill="#000000" font-family="sans-serif" font-size="14" lengthAdjust="spacing" textLength="36" x="287" y="461.3751">8000</text></g><!--entity e771ba177215eb3092edcb43cf53c8a7--><g id="elem_e771ba177215eb3092edcb43cf53c8a7"><ellipse cx="833" cy="431.38" fill="#F1F1F1" rx="8" ry="8" style="stroke:#181818;stroke-width:0.5;"/><text fill="#000000" font-family="sans-serif" font-size="14" lengthAdjust="spacing" textLength="36" x="815" y="461.3751">5432</text></g><!--entity 58b9e70b65a77700ba66e9c64d6b9f89--><g id="elem_58b9e70b65a77700ba66e9c64d6b9f89"><rect fill="#F1F1F1" height="39.2969" rx="2.5" ry="2.5" style="stroke:#181818;stroke-width:0.5;" width="34" x="122" y="639.67"/><polygon fill="#F1F1F1" points="139,644.67,139,658.67,151,658.67,151,650.67,145,644.67,139,644.67" style="stroke:#181818;stroke-width:0.5;"/><line style="stroke:#181818;stroke-width:0.5;" x1="145" x2="145" y1="644.67" y2="650.67"/><line style="stroke:#181818;stroke-width:0.5;" x1="151" x2="145" y1="650.67" y2="650.67"/><text fill="#000000" font-family="sans-serif" font-size="14" lengthAdjust="spacing" textLength="4" x="132" y="665.6651">.</text></g><!--entity 1b3bff591894c324e6d0194254b68417--><g id="elem_1b3bff591894c324e6d0194254b68417"><rect fill="#F1F1F1" height="39.2969" rx="2.5" ry="2.5" style="stroke:#181818;stroke-width:0.5;" width="129" x="504.5" y="639.67"/><polygon fill="#F1F1F1" points="616.5,644.67,616.5,658.67,628.5,658.67,628.5,650.67,622.5,644.67,616.5,644.67" style="stroke:#181818;stroke-width:0.5;"/><line style="stroke:#181818;stroke-width:0.5;" x1="622.5" x2="622.5" y1="644.67" y2="650.67"/><line style="stroke:#181818;stroke-width:0.5;" x1="628.5" x2="622.5" y1="650.67" y2="650.67"/><text fill="#000000" font-family="sans-serif" font-size="14" lengthAdjust="spacing" textLength="99" x="514.5" y="665.6651">postgres_data</text></g><!--link 58eaf29809a995bef66d3c6c262162fd to 0329d31a55de332fdf297c2a6295cb01--><g id="link_58eaf29809a995bef66d3c6c262162fd_0329d31a55de332fdf297c2a6295cb01"><path codeLine="30" d="M158.78,174.04 C175.6,213.89 198.33,267.72 206.71,287.59 " fill="none" id="58eaf29809a995bef66d3c6c262162fd-0329d31a55de332fdf297c2a6295cb01" style="stroke:#181818;stroke-width:1.0;"/></g><!--link 0329d31a55de332fdf297c2a6295cb01 to 1624c420083928ef3e240dd88f2e52f0--><g id="link_0329d31a55de332fdf297c2a6295cb01_1624c420083928ef3e240dd88f2e52f0"><path codeLine="31" d="M215.66,305.3 C232.59,329.01 282.75,399.23 299.49,422.66 " fill="none" id="0329d31a55de332fdf297c2a6295cb01-1624c420083928ef3e240dd88f2e52f0" style="stroke:#181818;stroke-width:1.0;"/></g><!--link faa1aa04e9912562f46c1abe3c3aada0 to 58b9e70b65a77700ba66e9c64d6b9f89--><g id="link_faa1aa04e9912562f46c1abe3c3aada0_58b9e70b65a77700ba66e9c64d6b9f89"><path codeLine="32" d="M139,560.97 C139,582.59 139,617.76 139,639.39 " fill="none" id="faa1aa04e9912562f46c1abe3c3aada0-58b9e70b65a77700ba66e9c64d6b9f89" style="stroke:#181818;stroke-width:1.0;"/><text fill="#000000" font-family="sans-serif" font-size="13" lengthAdjust="spacing" textLength="14" x="140" y="605.7369">rw</text></g><!--link 58eaf29809a995bef66d3c6c262162fd to faa1aa04e9912562f46c1abe3c3aada0--><g id="link_58eaf29809a995bef66d3c6c262162fd_faa1aa04e9912562f46c1abe3c3aada0"><path codeLine="33" d="M139,174.14 C139,264.6 139,453.5 139,515.02 " fill="none" id="58eaf29809a995bef66d3c6c262162fd-to-faa1aa04e9912562f46c1abe3c3aada0" style="stroke:#181818;stroke-width:1.0;stroke-dasharray:7.0,7.0;"/><polygon fill="#181818" points="139,521.02,143,512.02,139,516.02,135,512.02,139,521.02" style="stroke:#181818;stroke-width:1.0;"/><text fill="#000000" font-family="sans-serif" font-size="13" lengthAdjust="spacing" textLength="23" x="140" y="368.4469">use</text></g><!--link eab5be6548bed1a95284f2a24e186049 to d70a923daf07f1cec13e59bc124c841a--><g id="link_eab5be6548bed1a95284f2a24e186049_d70a923daf07f1cec13e59bc124c841a"><path codeLine="34" d="M625.84,206.85 C649.1,239.45 673,272.95 683.49,287.66 " fill="none" id="eab5be6548bed1a95284f2a24e186049-d70a923daf07f1cec13e59bc124c841a" style="stroke:#181818;stroke-width:1.0;"/></g><!--link d70a923daf07f1cec13e59bc124c841a to e771ba177215eb3092edcb43cf53c8a7--><g id="link_d70a923daf07f1cec13e59bc124c841a_e771ba177215eb3092edcb43cf53c8a7"><path codeLine="35" d="M697.58,305.3 C723.25,329.01 799.27,399.23 824.65,422.66 " fill="none" id="d70a923daf07f1cec13e59bc124c841a-e771ba177215eb3092edcb43cf53c8a7" style="stroke:#181818;stroke-width:1.0;"/></g><!--link e960ddc7b82a83f3eae82418c3ec9f71 to 1b3bff591894c324e6d0194254b68417--><g id="link_e960ddc7b82a83f3eae82418c3ec9f71_1b3bff591894c324e6d0194254b68417"><path codeLine="36" d="M569,560.97 C569,582.59 569,617.76 569,639.39 " fill="none" id="e960ddc7b82a83f3eae82418c3ec9f71-1b3bff591894c324e6d0194254b68417" style="stroke:#181818;stroke-width:1.0;"/><text fill="#000000" font-family="sans-serif" font-size="13" lengthAdjust="spacing" textLength="14" x="570" y="605.7369">rw</text></g><!--link eab5be6548bed1a95284f2a24e186049 to e960ddc7b82a83f3eae82418c3ec9f71--><g id="link_eab5be6548bed1a95284f2a24e186049_e960ddc7b82a83f3eae82418c3ec9f71"><path codeLine="37" d="M569,206.79 C569,305.2 569,460.39 569,515.15 " fill="none" id="eab5be6548bed1a95284f2a24e186049-to-e960ddc7b82a83f3eae82418c3ec9f71" style="stroke:#181818;stroke-width:1.0;stroke-dasharray:7.0,7.0;"/><polygon fill="#181818" points="569,521.15,573,512.15,569,516.15,565,512.15,569,521.15" style="stroke:#181818;stroke-width:1.0;"/><text fill="#000000" font-family="sans-serif" font-size="13" lengthAdjust="spacing" textLength="23" x="570" y="368.4469">use</text></g><!--SRC=[XLDDQnin5BplhrXyQWsnfQTlGmiD3Zt6n2azb1AUf2VZijxTsDkafVI_LzxOJN88kegPUM_cZR1fkiVTzjUstLHj5wcUB7zWk-cmxoSr7ceHal1QIU1E1nEPv282Opv1qD85NV-fwj3j-gwbTgYL9KpWB7FedFAKj8uYw00Qk8OKws_LTDhlkyrcJuT3TnUwTi1jI_lfjAhoqu3xOL5ZyuY_3rNrlNhtlfvOnjYu2XFWek2eL2GXibgUP0AW1gU2PxpAv6t2CDIJ-IhF64UCp8J84PaavpYel8ZKWQCd4GHYH5RzFNbVTOVXoBkBVYG28A32o20aXZQ5I9gBn2LwARoDhzqJ-kmvXsKzHOvEWPKfAqZYLZFfdjmVxfleZtwtEzpGekvFCnSD3Zc1Yjg7xRvhTrbnKQ-krxUVRwxMTylB3_tPq_Bo3T2NzTNDC-mDqEhJUltr-cRv3EGWtWfVIG5Z4j4mT20Y9cOI3nIu8ELyu223bHnVXl-0-tcpzVEpi_jc7d70KOUSPZ46uosW5KaGaWN9RH0KN38yd-BLqNDjP92vSLOui9G98BE0jGb8GMAljoHZk4Tk3715NZ0754C-LKXA18lcnPQpaQ2iTsHORZWQOtAlKMlAjPPHUvUiUq7e_tVZx8LxuLDIZbidWyXdrf5n9q59htCcfYf-XujuKQvr2J2g57Cg_O5HfHH7lQWd-yT9sTXi5cUpZyMFTzJxUQ19LVmwn-sA7Im1HfLYHqeLVSgxSFjpKaLZfwIAGqz9_GC0]--></g></svg>