<svg xmlns="http://www.w3.org/2000/svg" xmlns:xlink="http://www.w3.org/1999/xlink" contentStyleType="text/css" height="420px" preserveAspectRatio="none" style="width:556px;height:420px;background:#FFFFFF;" version="1.1" viewBox="0 0 556 420" width="556px" zoomAndPan="magnify"><defs/><g><!--cluster 931ba3e53e116906a0626aa332348931--><g id="cluster_931ba3e53e116906a0626aa332348931"><path d="M448.5,6 L536.5,6 A3.75,3.75 0 0 1 539,8.5 L546,28.2969 L546.5,28.2969 A2.5,2.5 0 0 1 549,30.7969 L549,133.39 A2.5,2.5 0 0 1 546.5,135.89 L448.5,135.89 A2.5,2.5 0 0 1 446,133.39 L446,8.5 A2.5,2.5 0 0 1 448.5,6 " fill="none" style="stroke:#000000;stroke-width:1.5;"/><line style="stroke:#000000;stroke-width:1.5;" x1="446" x2="546" y1="28.2969" y2="28.2969"/><text fill="#000000" font-family="sans-serif" font-size="14" font-weight="bold" lengthAdjust="spacing" textLength="87" x="450" y="20.9951">Progresso/</text></g><!--cluster 3953cd3fbf91fcc7a4df214e50917a02--><g id="cluster_3953cd3fbf91fcc7a4df214e50917a02"><path d="M8.5,6 L106.5,6 A3.75,3.75 0 0 1 109,8.5 L116,28.2969 L419.5,28.2969 A2.5,2.5 0 0 1 422,30.7969 L422,411.17 A2.5,2.5 0 0 1 419.5,413.67 L8.5,413.67 A2.5,2.5 0 0 1 6,411.17 L6,8.5 A2.5,2.5 0 0 1 8.5,6 " fill="none" style="stroke:#000000;stroke-width:1.5;"/><line style="stroke:#000000;stroke-width:1.5;" x1="6" x2="116" y1="28.2969" y2="28.2969"/><text fill="#000000" font-family="sans-serif" font-size="14" font-weight="bold" lengthAdjust="spacing" textLength="97" x="10" y="20.9951">EventMaker/</text></g><!--entity 2afb4dcd31fa0c0a8ea077220ffc4fb0--><g id="elem_2afb4dcd31fa0c0a8ea077220ffc4fb0"><rect fill="#F1F1F1" height="78.8906" rx="2.5" ry="2.5" style="stroke:#181818;stroke-width:0.5;" width="70" x="462" y="41"/><rect fill="#F1F1F1" height="10" style="stroke:#181818;stroke-width:0.5;" width="15" x="512" y="46"/><rect fill="#F1F1F1" height="2" style="stroke:#181818;stroke-width:0.5;" width="4" x="510" y="48"/><rect fill="#F1F1F1" height="2" style="stroke:#181818;stroke-width:0.5;" width="4" x="510" y="52"/><text fill="#000000" font-family="sans-serif" font-size="14" font-weight="bold" lengthAdjust="spacing" textLength="30" x="477" y="73.9951">urls</text><text fill="#000000" font-family="sans-serif" font-size="14" lengthAdjust="spacing" textLength="4" x="477" y="90.292">&#160;</text><text fill="#000000" font-family="sans-serif" font-size="14" lengthAdjust="spacing" textLength="4" x="477" y="106.5889">&#160;</text></g><!--entity 6a321b4625917241716f622f96d9608d--><g id="elem_6a321b4625917241716f622f96d9608d"><rect fill="#F1F1F1" height="78.8906" rx="2.5" ry="2.5" style="stroke:#181818;stroke-width:0.5;" width="70" x="26" y="41"/><rect fill="#F1F1F1" height="10" style="stroke:#181818;stroke-width:0.5;" width="15" x="76" y="46"/><rect fill="#F1F1F1" height="2" style="stroke:#181818;stroke-width:0.5;" width="4" x="74" y="48"/><rect fill="#F1F1F1" height="2" style="stroke:#181818;stroke-width:0.5;" width="4" x="74" y="52"/><text fill="#000000" font-family="sans-serif" font-size="14" font-weight="bold" lengthAdjust="spacing" textLength="30" x="41" y="73.9951">urls</text><text fill="#000000" font-family="sans-serif" font-size="14" lengthAdjust="spacing" textLength="4" x="41" y="90.292">&#160;</text><text fill="#000000" font-family="sans-serif" font-size="14" lengthAdjust="spacing" textLength="4" x="41" y="106.5889">&#160;</text></g><!--entity b092fec8d275c09f284c5a6006a02a59--><g id="elem_b092fec8d275c09f284c5a6006a02a59"><rect fill="#F1F1F1" height="78.8906" rx="2.5" ry="2.5" style="stroke:#181818;stroke-width:0.5;" width="86" x="295" y="41"/><rect fill="#F1F1F1" height="10" style="stroke:#181818;stroke-width:0.5;" width="15" x="361" y="46"/><rect fill="#F1F1F1" height="2" style="stroke:#181818;stroke-width:0.5;" width="4" x="359" y="48"/><rect fill="#F1F1F1" height="2" style="stroke:#181818;stroke-width:0.5;" width="4" x="359" y="52"/><text fill="#000000" font-family="sans-serif" font-size="14" font-weight="bold" lengthAdjust="spacing" textLength="46" x="310" y="73.9951">views</text><text fill="#000000" font-family="sans-serif" font-size="14" lengthAdjust="spacing" textLength="4" x="310" y="90.292">&#160;</text><text fill="#000000" font-family="sans-serif" font-size="14" lengthAdjust="spacing" textLength="4" x="310" y="106.5889">&#160;</text></g><!--entity d7d0528755f111e53ad6b0ab4357e3bf--><g id="elem_d7d0528755f111e53ad6b0ab4357e3bf"><rect fill="#F1F1F1" height="78.8906" rx="2.5" ry="2.5" style="stroke:#181818;stroke-width:0.5;" width="113" x="256.5" y="179.89"/><rect fill="#F1F1F1" height="10" style="stroke:#181818;stroke-width:0.5;" width="15" x="349.5" y="184.89"/><rect fill="#F1F1F1" height="2" style="stroke:#181818;stroke-width:0.5;" width="4" x="347.5" y="186.89"/><rect fill="#F1F1F1" height="2" style="stroke:#181818;stroke-width:0.5;" width="4" x="347.5" y="190.89"/><text fill="#000000" font-family="sans-serif" font-size="14" font-weight="bold" lengthAdjust="spacing" textLength="73" x="271.5" y="212.8851">serializer</text><text fill="#000000" font-family="sans-serif" font-size="14" lengthAdjust="spacing" textLength="4" x="271.5" y="229.182">&#160;</text><text fill="#000000" font-family="sans-serif" font-size="14" lengthAdjust="spacing" textLength="4" x="271.5" y="245.4789">&#160;</text></g><!--entity a13eef1e0ebe1e611450b703be344db5--><g id="elem_a13eef1e0ebe1e611450b703be344db5"><rect fill="#F1F1F1" height="78.8906" rx="2.5" ry="2.5" style="stroke:#181818;stroke-width:0.5;" width="80" x="131" y="41"/><rect fill="#F1F1F1" height="10" style="stroke:#181818;stroke-width:0.5;" width="15" x="191" y="46"/><rect fill="#F1F1F1" height="2" style="stroke:#181818;stroke-width:0.5;" width="4" x="189" y="48"/><rect fill="#F1F1F1" height="2" style="stroke:#181818;stroke-width:0.5;" width="4" x="189" y="52"/><text fill="#000000" font-family="sans-serif" font-size="14" font-weight="bold" lengthAdjust="spacing" textLength="40" x="146" y="73.9951">tests</text><text fill="#000000" font-family="sans-serif" font-size="14" lengthAdjust="spacing" textLength="4" x="146" y="90.292">&#160;</text><text fill="#000000" font-family="sans-serif" font-size="14" lengthAdjust="spacing" textLength="4" x="146" y="106.5889">&#160;</text></g><!--entity 5c6fc29b134c3a615355edca99ac786f--><g id="elem_5c6fc29b134c3a615355edca99ac786f"><rect fill="#F1F1F1" height="78.8906" rx="2.5" ry="2.5" style="stroke:#181818;stroke-width:0.5;" width="78" x="22" y="179.89"/><rect fill="#F1F1F1" height="10" style="stroke:#181818;stroke-width:0.5;" width="15" x="80" y="184.89"/><rect fill="#F1F1F1" height="2" style="stroke:#181818;stroke-width:0.5;" width="4" x="78" y="186.89"/><rect fill="#F1F1F1" height="2" style="stroke:#181818;stroke-width:0.5;" width="4" x="78" y="190.89"/><text fill="#000000" font-family="sans-serif" font-size="14" font-weight="bold" lengthAdjust="spacing" textLength="38" x="37" y="212.8851">apps</text><text fill="#000000" font-family="sans-serif" font-size="14" lengthAdjust="spacing" textLength="4" x="37" y="229.182">&#160;</text><text fill="#000000" font-family="sans-serif" font-size="14" lengthAdjust="spacing" textLength="4" x="37" y="245.4789">&#160;</text></g><!--entity 939911e02a4a0ac434429a11837e31e7--><g id="elem_939911e02a4a0ac434429a11837e31e7"><rect fill="#F1F1F1" height="78.8906" rx="2.5" ry="2.5" style="stroke:#181818;stroke-width:0.5;" width="97" x="286.5" y="318.78"/><rect fill="#F1F1F1" height="10" style="stroke:#181818;stroke-width:0.5;" width="15" x="363.5" y="323.78"/><rect fill="#F1F1F1" height="2" style="stroke:#181818;stroke-width:0.5;" width="4" x="361.5" y="325.78"/><rect fill="#F1F1F1" height="2" style="stroke:#181818;stroke-width:0.5;" width="4" x="361.5" y="329.78"/><text fill="#000000" font-family="sans-serif" font-size="14" font-weight="bold" lengthAdjust="spacing" textLength="57" x="301.5" y="351.7751">models</text><text fill="#000000" font-family="sans-serif" font-size="14" lengthAdjust="spacing" textLength="4" x="301.5" y="368.072">&#160;</text><text fill="#000000" font-family="sans-serif" font-size="14" lengthAdjust="spacing" textLength="4" x="301.5" y="384.3689">&#160;</text></g><!--entity 1b68efbde6c748af9c07ce9b2a33a3b3--><g id="elem_1b68efbde6c748af9c07ce9b2a33a3b3"><rect fill="#F1F1F1" height="78.8906" rx="2.5" ry="2.5" style="stroke:#181818;stroke-width:0.5;" width="87" x="134.5" y="179.89"/><rect fill="#F1F1F1" height="10" style="stroke:#181818;stroke-width:0.5;" width="15" x="201.5" y="184.89"/><rect fill="#F1F1F1" height="2" style="stroke:#181818;stroke-width:0.5;" width="4" x="199.5" y="186.89"/><rect fill="#F1F1F1" height="2" style="stroke:#181818;stroke-width:0.5;" width="4" x="199.5" y="190.89"/><text fill="#000000" font-family="sans-serif" font-size="14" font-weight="bold" lengthAdjust="spacing" textLength="47" x="149.5" y="212.8851">admin</text><text fill="#000000" font-family="sans-serif" font-size="14" lengthAdjust="spacing" textLength="4" x="149.5" y="229.182">&#160;</text><text fill="#000000" font-family="sans-serif" font-size="14" lengthAdjust="spacing" textLength="4" x="149.5" y="245.4789">&#160;</text></g><!--link b092fec8d275c09f284c5a6006a02a59 to 939911e02a4a0ac434429a11837e31e7--><g id="link_b092fec8d275c09f284c5a6006a02a59_939911e02a4a0ac434429a11837e31e7"><path codeLine="46" d="M362.42,120.09 C372.12,137.63 382.11,159.07 387,179.89 C395.02,214.02 395.44,224.75 387,258.78 C381.84,279.6 374.4117,295.7023 364.2117,313.1223 " fill="none" id="b092fec8d275c09f284c5a6006a02a59-to-939911e02a4a0ac434429a11837e31e7" style="stroke:#181818;stroke-width:1.0;"/><polygon fill="#181818" points="361.18,318.3,369.1794,312.5546,363.7064,313.9852,362.2758,308.5123,361.18,318.3" style="stroke:#181818;stroke-width:1.0;"/></g><!--link b092fec8d275c09f284c5a6006a02a59 to d7d0528755f111e53ad6b0ab4357e3bf--><g id="link_b092fec8d275c09f284c5a6006a02a59_d7d0528755f111e53ad6b0ab4357e3bf"><path codeLine="47" d="M330.9,120.3 C327.5,138.96 324.5083,155.3377 321.1083,173.9477 " fill="none" id="b092fec8d275c09f284c5a6006a02a59-to-d7d0528755f111e53ad6b0ab4357e3bf" style="stroke:#181818;stroke-width:1.0;"/><polygon fill="#181818" points="320.03,179.85,325.5824,171.7154,320.9286,174.9314,317.7126,170.2777,320.03,179.85" style="stroke:#181818;stroke-width:1.0;"/></g><!--link d7d0528755f111e53ad6b0ab4357e3bf to 939911e02a4a0ac434429a11837e31e7--><g id="link_d7d0528755f111e53ad6b0ab4357e3bf_939911e02a4a0ac434429a11837e31e7"><path codeLine="48" d="M319.25,259.2 C322.24,277.85 324.8651,294.2065 327.8651,312.8165 " fill="none" id="d7d0528755f111e53ad6b0ab4357e3bf-to-939911e02a4a0ac434429a11837e31e7" style="stroke:#181818;stroke-width:1.0;"/><polygon fill="#181818" points="328.82,318.74,331.3367,309.2181,328.0243,313.8037,323.4386,310.4913,328.82,318.74" style="stroke:#181818;stroke-width:1.0;"/></g><!--SRC=[ZPBBQXj144NtynM3bmAJUlHparsMWUoD5zNLrMAmf14pYXriyk_fI12JA22lYrFdraDsk_bbF_sO3jlXAFeaMnlllYtpTh5rdJ_TZRAEcR48csT331c2GA0WmapiKY-ERuFE- -DyiCDf96d5LQsCJK11aWd4I0IjgMi5neTXi_c-xDRDPXY6n-7dk_RBSs_mLPvikNWvU-wDMcaPcseKLnkXCmyPem3zvGt2XCK5yhr83YE65eXQ3ZK7IFLVxpjP85CpJPMYLyYDabCl0NuFIkBpcNoUxEKQhR62fnIzRuZODoGr593Ys4VZqixeQiiak-dLbYjUaCqQ6bWnj83eF9G8N8oTgyMV-PEjfskrrz2KSa5soXBGi_TMLN8MZIbSr78yNfEPS-vX-snEGDHr5ML1JDmpeyKpkP-h_MTNM4AoLge5ZIv9omfHBHVgto1S-6Aj- -dmvxmtrtjVxp_V3FN1DhSECjoys8VI_080]--></g></svg>